<?xml version="1.0" standalone="no"?>
<!DOCTYPE svg PUBLIC "-//W3C//DTD SVG 20010904//EN"
 "http://www.w3.org/TR/2001/REC-SVG-20010904/DTD/svg10.dtd">
<svg version="1.0" xmlns="http://www.w3.org/2000/svg"
 width="501.000000pt" height="501.000000pt" viewBox="0 0 501.000000 501.000000"
 preserveAspectRatio="xMidYMid meet">
<metadata>
Created by potrace 1.11, written by Peter Selinger 2001-2013
</metadata>
<g transform="translate(0.000000,501.000000) scale(0.100000,-0.100000)"
fill="#000000" stroke="none">
<path d="M2285 5003 c-494 -43 -990 -248 -1377 -570 -722 -601 -1046 -1555
-842 -2473 139 -624 520 -1178 1054 -1535 546 -363 1218 -498 1868 -374 866
166 1600 804 1889 1643 136 395 169 863 92 1276 -71 379 -230 735 -471 1058
-93 125 -345 377 -470 470 -461 344 -977 516 -1533 510 -93 -1 -188 -3 -210
-5z m500 -1317 c332 -57 536 -149 718 -325 217 -209 337 -513 337 -851 0 -336
-113 -624 -329 -838 -161 -158 -371 -261 -673 -329 l-123 -28 -747 -3 c-680
-3 -748 -1 -748 13 0 9 72 98 160 198 l160 182 0 925 0 926 -135 63 c-74 35
-140 70 -147 78 -10 12 85 14 708 10 619 -3 733 -6 819 -21z"/>
<path d="M2186 3574 c-10 -26 -7 -1872 4 -1963 11 -96 24 -121 77 -147 82 -40
316 -26 440 27 155 66 283 222 353 429 103 305 103 824 0 1131 -37 110 -68
173 -133 267 -112 162 -241 233 -477 262 -133 16 -257 13 -264 -6z"/>
</g>
</svg>
