<?xml version="1.0" encoding="UTF-8"?>
<svg width="463px" height="85px" viewBox="0 0 463 85" version="1.1" xmlns="http://www.w3.org/2000/svg" xmlns:xlink="http://www.w3.org/1999/xlink">
    <title>dilettantmini</title>
    <g id="Page-1" stroke="none" stroke-width="1" fill="none" fill-rule="evenodd">
        <g id="dilettantmini" fill="#000000">
            <path d="M38.1582328,82.583 L0.842232758,82.583 C0.0082327577,82.583 -0.248767242,82.008 0.263232758,81.43 L11.0362328,69.312 C11.3572328,68.926 11.4842328,68.604 11.4842328,68.156 L11.4842328,8.59 C11.4842328,7.501 11.2282328,7.758 10.8452328,7.563 L1.61123276,3.205 C0.777232758,2.754 0.906232758,2.049 1.86823276,2.049 L38.1582328,2.049 C58.9332328,2.049 72.8462328,7.501 80.8622328,20.516 C84.8382328,26.992 86.8252328,34.367 86.8252328,42.574 C86.8252328,53.922 82.4642328,63.798 76.2442328,70.017 C70.0252328,76.236 62.2662328,79.761 50.4702328,81.878 C47.8402328,82.326 43.7372328,82.583 38.1582328,82.583 M32.3872328,7.501 L32.3872328,69.439 C32.3872328,72.771 32.5792328,74.824 32.9002328,75.594 C33.2212328,76.363 33.8002328,76.877 34.6322328,77.325 C35.7872328,77.902 37.4532328,78.159 39.6332328,78.159 C46.7492328,78.159 52.2012328,75.915 55.9822328,71.427 C61.1132328,65.272 63.6792328,55.845 63.6792328,43.022 C63.6792328,32.698 61.9472328,24.429 58.4212328,18.271 C52.9712328,8.846 46.9432328,6.667 33.3482328,6.602 C32.7092328,6.602 32.3872328,6.923 32.3872328,7.501 M105.856233,0 C111.433233,0 115.795233,4.166 115.795233,9.23 C115.795233,14.296 111.306233,18.401 105.856233,18.401 C100.404233,18.401 95.9802328,14.296 95.9802328,9.23 C95.9802328,4.166 100.404233,0 105.856233,0 M91.3012328,26.929 L113.869233,26.929 C114.512233,26.929 114.833233,27.248 114.833233,27.826 L114.833233,70.466 C114.833233,70.849 114.895233,71.17 115.152233,71.557 L121.436233,81.492 C121.822233,82.135 121.501233,82.583 120.731233,82.583 L91.1742328,82.583 C90.3392328,82.583 90.0832328,82.135 90.5962328,81.492 L99.1242328,71.17 C99.1892328,71.105 99.2512328,70.979 99.2512328,70.849 L99.7642328,37.443 C99.7642328,36.93 99.6372328,36.673 99.3162328,36.29 L90.8522328,28.018 C90.2102328,27.505 90.4662328,26.929 91.3012328,26.929 M128.153233,2.049 L150.851233,2.049 C151.492233,2.049 151.813233,2.371 151.813233,2.948 L151.813233,70.466 C151.813233,70.914 151.878233,71.17 152.135233,71.618 L158.419233,81.492 C158.802233,82.135 158.480233,82.583 157.711233,82.583 L128.026233,82.583 C127.257233,82.583 126.935233,82.135 127.319233,81.492 L133.538233,71.618 C133.795233,71.17 133.859233,70.914 133.859233,70.466 L133.859233,11.155 C133.859233,10.707 133.732233,10.451 133.476233,10.064 L127.575233,3.14 C127.127233,2.5 127.384233,2.049 128.153233,2.049 M209.187233,53.955 L178.220233,53.955 C177.641233,53.955 177.256233,54.339 177.320233,54.917 C178.346233,68.639 186.680233,78.255 194.248233,75.692 C198.352233,74.345 198.544233,73.445 203.803233,68.703 C204.185233,68.252 204.507233,68.125 205.020233,68.125 L208.866233,68.125 C209.636233,68.125 209.892233,68.509 209.573233,69.151 C203.224233,80.308 195.722233,84.475 185.720233,84.475 C167.960233,84.475 160.007233,71.522 160.007233,56.774 C160.007233,38.824 172.575233,27.347 187.132233,27.347 C199.057233,27.347 209.060233,36.129 210.084233,53.056 C210.148233,53.634 209.830233,53.955 209.187233,53.955 M177.961233,49.081 L193.478233,47.671 C194.312233,47.606 194.375233,46.774 194.375233,46.196 C194.312233,40.617 193.927233,39.591 193.286233,37.35 C192.516233,35.041 191.363233,33.372 189.760233,32.154 C188.862233,31.449 187.644233,31.065 186.170233,31.065 C183.926233,31.065 182.130233,32.089 180.718233,34.014 C178.220233,37.412 176.936233,42.157 176.936233,46.389 L176.936233,48.185 C176.936233,48.762 177.320233,49.145 177.961233,49.081 M212.486233,28.883 L233.324233,3.174 C233.901233,2.469 234.476233,2.661 234.542233,3.557 L235.120233,22.088 C235.120233,23.369 235.438233,23.05 236.081233,23.05 L244.736233,23.05 C245.250233,23.05 245.571233,23.177 245.892233,23.563 L250.508233,28.883 C251.085233,29.461 250.829233,30.039 249.994233,30.039 L238.261233,30.039 C237.620233,30.039 237.299233,30.36 237.299233,31 L237.299233,64.472 C237.299233,67.934 237.491233,70.178 237.812233,71.139 C238.452233,73.191 240.375233,74.536 241.722233,74.536 C244.223233,74.536 246.659233,72.806 248.903233,71.201 C249.417233,70.883 249.803233,70.883 250.251233,71.266 L250.829233,71.652 C251.277233,71.971 251.404233,72.422 251.213233,73 C247.685233,80.629 242.171233,84.475 234.669233,84.475 C227.040233,84.475 221.463233,79.408 219.988233,74.215 C219.537233,72.74 219.345233,68.83 219.345233,62.419 L219.345233,31 C219.345233,30.36 219.024233,30.039 218.384233,30.039 L213.061233,30.039 C212.229233,30.039 211.972233,29.526 212.486233,28.883 M254.068233,28.883 L274.906233,3.174 C275.483233,2.469 276.061233,2.661 276.124233,3.557 L276.702233,22.088 C276.702233,23.369 277.023233,23.05 277.663233,23.05 L286.318233,23.05 C286.832233,23.05 287.153233,23.177 287.474233,23.563 L292.090233,28.883 C292.667233,29.461 292.411233,30.039 291.576233,30.039 L279.843233,30.039 C279.202233,30.039 278.881233,30.36 278.881233,31 L278.881233,64.472 C278.881233,67.934 279.073233,70.178 279.394233,71.139 C280.034233,73.191 281.960233,74.536 283.307233,74.536 C285.805233,74.536 288.244233,72.806 290.488233,71.201 C291.001233,70.883 291.385233,70.883 291.833233,71.266 L292.411233,71.652 C292.859233,71.971 292.989233,72.422 292.795233,73 C289.270233,80.629 283.756233,84.475 276.253233,84.475 C268.622233,84.475 263.045233,79.408 261.570233,74.215 C261.122233,72.74 260.928233,68.83 260.928233,62.419 L260.928233,31 C260.928233,30.36 260.606233,30.039 259.966233,30.039 L254.646233,30.039 C253.811233,30.039 253.554233,29.526 254.068233,28.883 M423.640233,28.883 L444.478233,3.174 C445.056233,2.469 445.634233,2.661 445.699233,3.557 L446.276233,22.088 C446.276233,23.369 446.595233,23.05 447.238233,23.05 L455.893233,23.05 C456.406233,23.05 456.725233,23.177 457.047233,23.563 L461.665233,28.883 C462.240233,29.461 461.986233,30.039 461.151233,30.039 L449.418233,30.039 C448.775233,30.039 448.456233,30.36 448.456233,31 L448.456233,64.472 C448.456233,67.934 448.648233,70.178 448.970233,71.139 C449.609233,73.191 451.532233,74.536 452.880233,74.536 C455.381233,74.536 457.816233,72.806 460.060233,71.201 C460.574233,70.883 460.957233,70.883 461.408233,71.266 L461.986233,71.652 C462.434233,71.971 462.561233,72.422 462.369233,73 C458.843233,80.629 453.328233,84.475 445.826233,84.475 C438.196233,84.475 432.617233,79.408 431.142233,74.215 C430.694233,72.74 430.503233,68.83 430.503233,62.419 L430.503233,31 C430.503233,30.36 430.181233,30.039 429.541233,30.039 L424.219233,30.039 C423.387233,30.039 423.128233,29.526 423.640233,28.883 M360.832233,28.852 L382.826233,28.852 C383.466233,28.852 383.787233,29.173 383.787233,29.749 L383.787233,34.237 C383.787233,35.072 384.365233,35.263 385.005233,34.686 C390.646233,29.492 395.713233,27.248 401.740233,27.248 C409.499233,27.248 414.819233,31.609 416.551233,37.38 C417.258233,39.56 417.577233,43.727 417.577233,49.946 L417.577233,70.273 C417.577233,70.657 417.706233,70.979 417.963233,71.3 L426.491233,81.557 C427.002233,82.135 426.748233,82.583 425.913233,82.583 L395.200233,82.583 C394.368233,82.583 394.111233,82.135 394.625233,81.557 L399.240233,76.172 C399.496233,75.788 399.626233,75.531 399.626233,75.081 L399.626233,46.933 C399.626233,42.509 399.431233,39.752 399.048233,38.599 C398.278233,36.354 396.291233,35.007 394.047233,35.007 C390.519233,35.007 387.184233,37.189 384.108233,41.548 C383.851233,41.931 383.787233,42.252 383.787233,42.636 L383.787233,74.954 C383.787233,75.337 383.917233,75.658 384.171233,75.979 L388.789233,81.557 C389.302233,82.135 389.045233,82.583 388.211233,82.583 L360.897233,82.583 C360.062233,82.583 359.805233,82.135 360.319233,81.557 L365.386233,75.979 C365.704233,75.658 365.834233,75.337 365.834233,74.954 L365.834233,36.738 C365.834233,36.354 365.704233,36.033 365.450233,35.712 L360.319233,29.878 C359.805233,29.3 360.062233,28.852 360.832233,28.852 M329.002233,75.529 C322.075233,80.852 315.918233,83.417 310.273233,83.417 C303.411233,83.417 298.345233,78.864 298.345233,72.837 C298.345233,68.731 300.333233,65.013 304.246233,61.74 C308.094233,58.47 316.496233,54.303 329.259233,47.311 C329.771233,47.055 330.028233,46.668 330.028233,46.22 L330.028233,43.271 C330.028233,39.166 329.771233,36.601 329.323233,35.51 C328.297233,33.457 325.280233,31.599 321.883233,31.599 C319.444233,31.599 317.392233,32.047 315.725233,32.879 C315.213233,33.139 315.083233,33.522 315.148233,33.97 L317.392233,44.937 C317.521233,45.515 317.136233,45.901 316.430233,45.771 L300.524233,43.141 C299.949233,43.014 299.628233,42.693 299.692233,42.115 C300.141233,36.922 305.207233,31.855 313.481233,29.226 C317.841233,27.943 322.396233,27.238 327.076233,27.238 C338.429233,27.238 345.035233,32.496 347.022233,37.562 C347.600233,39.166 347.727233,42.823 347.919233,48.658 L348.754233,74.666 C348.754233,75.177 348.883233,75.498 349.205233,75.884 L355.875233,81.43 C356.450233,82.008 356.193233,82.585 355.362233,82.585 L331.181233,82.585 C330.541233,82.585 330.220233,82.264 330.220233,81.621 L330.220233,75.915 C330.093233,75.272 329.580233,75.081 329.002233,75.529 M330.028233,69.885 L330.028233,53.339 C330.028233,52.634 329.514233,52.312 328.872233,52.825 C324.254233,55.647 320.792233,58.405 318.483233,61.227 C316.817233,63.344 315.982233,65.396 315.982233,67.511 C315.982233,71.041 318.740233,73.733 322.588233,73.733 C324.576233,73.733 326.885233,72.771 329.450233,70.911 C329.834233,70.654 330.028233,70.336 330.028233,69.885"></path>
        </g>
    </g>
</svg>